<svg width="500" height="500" viewBox="0 0 500 500" fill="none" xmlns="http://www.w3.org/2000/svg">
<rect width="500" height="500" rx="250" fill="white"/>
<path d="M124.341 243.741C125.22 233 127.754 222.363 132.073 212.475C134.374 207.208 140.723 191.278 148.713 192.582C155.217 193.64 153.303 207.776 152.502 211.519C150.64 220.091 149.036 228.56 153.032 236.821C161.203 253.758 181.464 250.518 190.915 236.731C195.725 229.708 198.298 221.33 201.091 213.378C204.776 202.883 208.241 192.298 212.094 181.867C214.68 174.845 203.444 171.811 200.871 178.782C197.018 189.225 193.566 199.798 189.868 210.293C186.959 218.555 184.166 230.832 175.969 235.569C164.966 241.933 161.022 228.017 162.561 219.833C164.164 211.326 166.194 203.477 163.828 194.854C159.445 178.872 142.74 177.349 132.318 189.238C119.712 203.593 114.217 225.216 112.704 243.741C112.096 251.189 123.733 251.15 124.341 243.741Z" fill="#DD5746"/>
<path d="M208.189 219.691C208.965 228.34 213.529 236.628 221.765 240.113C242.517 248.917 257.244 227.45 262.869 210.848C266.01 201.593 269.527 191.227 267.252 181.377C265.235 172.663 258.485 166.222 249.745 164.401C245.375 163.485 241.302 163.678 237.552 164.711C235.134 160.735 233.441 156.359 232.393 151.815C251.542 146.006 271.131 141.565 290.887 138.389C292.038 138.209 292.18 136.44 291.21 135.924C276.341 128.23 259.74 124.835 243.228 122.834C241.095 122.576 238.962 122.356 236.815 122.176C235.354 122.059 233.712 121.763 232.329 122.369C229.523 123.609 229.445 128.023 229.07 130.618C228.062 137.602 228.114 144.728 229.562 151.647C230.596 156.566 232.393 161.29 234.928 165.589C216.412 173.025 206.586 201.838 208.189 219.691ZM231.333 134.401C231.475 132.813 231.682 131.225 231.954 129.663C232.083 128.94 232.212 128.23 232.368 127.507C232.51 126.81 232.574 125.493 233.169 124.99C233.984 124.319 235.923 124.796 236.841 124.874C238.884 125.041 240.914 125.248 242.944 125.493C250.611 126.41 258.24 127.662 265.739 129.495C272.747 131.212 279.638 133.458 286.181 136.479C267.846 139.59 249.667 143.785 231.876 149.169C231.036 144.315 230.894 139.306 231.333 134.401ZM231.941 180.305C235.367 177.414 240.164 175.245 244.728 175.426C261.395 176.097 255.615 195.641 252.331 205.723C249.073 215.715 242.013 233.078 228.243 230.083C220.873 228.482 218.869 222.196 219.955 215.405C220.576 211.507 221.597 207.724 223.343 204.2C225.153 200.521 226.795 196.661 227.118 192.53C227.506 187.418 227.79 183.817 231.941 180.305Z" fill="#DD5746"/>
<path d="M270.071 219.278C272.14 226.765 277.557 232.561 287.125 233.349C306.442 234.949 315.932 217.019 321.143 201.399C324.246 192.117 327.259 182.009 323.16 172.547C319.992 165.201 313.088 160.696 305.097 160.386C278.617 159.354 263.994 197.345 270.071 219.278ZM289.44 180.86C291.961 177.039 295.452 173.915 299.913 172.624C305.007 171.153 310.528 172.159 312.713 177.517C315.157 183.545 312.428 190.607 310.554 196.39C307.489 205.852 303.455 219.162 292.232 221.511C286.97 222.608 281.953 220.969 280.492 215.366C279.122 210.086 281.889 205.672 283.686 200.908C285.095 197.177 284.888 193.214 285.522 189.342C286.039 186.192 287.72 183.481 289.44 180.86Z" fill="#DD5746"/>
<path d="M336.904 227.552C339.813 205.091 342.709 182.616 345.618 160.154C346.575 152.757 334.926 152.834 333.982 160.154C331.073 182.616 328.176 205.091 325.267 227.552C324.31 234.949 335.96 234.872 336.904 227.552Z" fill="#DD5746"/>
<path d="M347.959 204.303C357.902 220.633 378.589 218.503 394.609 215.276C401.94 213.804 398.837 202.599 391.519 204.071C381.279 206.136 367.25 209.157 359.285 200.082C349.873 189.367 364.755 178.885 372.849 173.747C379.145 169.745 373.314 159.689 366.978 163.717C353.558 172.25 337.512 187.147 347.959 204.303Z" fill="#DD5746"/>
<path d="M408.456 211.339C415.943 211.339 415.956 199.721 408.456 199.721C400.97 199.721 400.957 211.339 408.456 211.339Z" fill="#DD5746"/>
<path d="M123.294 262.885C122.595 255.462 111.178 257.721 111.877 265.118C115.432 303.278 79.475 334.221 42.186 325.043C34.9713 323.261 30.989 334.195 38.2554 335.977C59.8349 341.295 83.2246 336.648 100.253 322.009C117.268 307.383 125.349 284.986 123.294 262.885Z" fill="#DD5746"/>
<path d="M166.918 260.161C156.924 256.998 147.433 262.304 140.594 269.326C128.776 281.435 120.462 299.715 122.414 316.884C123.1 322.951 125.867 328.683 130.483 332.749C136.986 338.481 146.179 338.984 153.704 334.931C163.117 329.844 167.72 319.608 171.444 310.119C176.512 297.159 186.985 266.525 166.918 260.161ZM161.035 304.878C158.152 312.675 146.722 335.886 136.469 322.176C132.474 316.832 133.004 310.378 135.422 304.504C138.202 297.752 143.8 293.312 145.158 285.786C145.481 283.991 145.61 282.145 146.166 280.403C147.925 274.774 156.225 270.372 161.876 270.992C173.383 272.27 163.169 299.095 161.035 304.878Z" fill="#DD5746"/>
<path d="M188.692 271.392C182.835 282.584 177.158 294.667 180.158 307.576C182.589 318.058 191.743 326.488 202.862 326.165C214.396 325.83 220.085 315.425 223.77 305.975C228.993 292.602 231.618 278.389 232.122 264.072C232.394 256.598 220.757 256.611 220.486 264.072C220.162 273.173 218.908 282.094 216.503 290.885C214.68 297.584 212.405 308.428 206.586 312.959C199.656 318.355 192.247 310.081 191.174 303.548C189.635 294.189 194.562 285.218 198.751 277.24C202.203 270.643 192.17 264.757 188.692 271.392Z" fill="#DD5746"/>
<path d="M309.868 292.176C313.023 303.613 326.185 314.276 336.658 303.523C341.959 298.075 342.541 289.387 343.705 282.313C345.437 271.818 346.834 261.271 348.398 250.75C349.484 243.431 338.274 240.281 337.175 247.665C335.611 258.186 334.215 268.733 332.482 279.228C331.952 282.429 329.974 302.568 323.367 293.931C318.596 287.696 321.427 279.602 321.156 272.489C320.936 266.577 319.358 260.097 315.376 255.553C306.131 245.019 292.555 251.254 287.435 262.291C281.475 275.136 280.324 290.833 281.501 305.098C274.829 303.433 261.835 300.128 261.886 294.499C261.912 291.776 266.619 289.039 268.493 287.541C271.196 285.373 273.639 283.152 275.708 280.338C283.647 269.546 283.013 251.589 268.765 246.193C252.564 240.062 242.039 256.843 237.436 269.572C231.476 286.044 230.7 303.833 234.165 320.924C235.652 328.244 246.862 325.146 245.388 317.839C242.337 302.761 243.397 287.141 248.659 272.67C250.793 266.822 254.387 257.424 261.731 256.792C270.303 256.056 270.42 266.9 267.278 272.115C261.99 280.867 247.715 285.05 250.599 297.662C252.163 304.491 258.163 308.738 264.201 311.488C267.485 312.972 270.924 314.095 274.376 315.115C280.828 317.026 290.525 318.355 292.387 309.835C292.969 307.189 292.775 304.452 292.879 301.767C293.137 294.951 292.956 288.071 294.12 281.28C295.064 275.781 296.098 268.875 299.602 264.344C304.36 258.186 308.42 264.718 309.286 269.895C310.502 277.266 307.825 284.766 309.868 292.176Z" fill="#DD5746"/>
<path d="M386.864 271.831C393.924 269.443 390.885 258.225 383.774 260.626C374.749 263.672 366.551 268.539 359.841 275.123C360.151 261.245 371.051 249.472 384.226 246.193C391.493 244.386 388.416 233.181 381.136 234.988C360.242 240.191 344.351 261.684 349.006 283.385C351.346 294.28 359.738 302.464 370.999 303.368C383.257 304.362 393.6 296.888 401.293 288.122C406.22 282.52 398.022 274.271 393.07 279.912C388.105 285.553 381.938 291.453 373.96 291.84C369.551 292.06 366.177 290.42 363.823 287.748C364.082 287.516 364.315 287.257 364.547 286.96C370.017 279.847 378.434 274.684 386.864 271.831Z" fill="#DD5746"/>
<path d="M440.237 230.302C430.462 236.06 427.178 247.975 423.416 258.728C412.038 255.514 404.901 246.671 402.845 235.092C401.539 227.746 390.329 230.857 391.622 238.177C394.35 253.552 405.276 264.899 418.929 269.391C411.883 283.101 402.547 295.506 391.48 306.234C365.995 330.955 332.779 344.638 297.973 349.918C277.802 352.978 257.141 353.262 236.803 351.945C216.826 350.654 196.979 346.885 179.007 337.758C172.348 334.376 166.453 344.393 173.137 347.788C199.889 361.394 230.027 364.325 259.662 364.247C291.107 364.17 322.927 359.381 351.837 346.626C376.921 335.563 399.056 318.239 415.606 296.397C421.515 288.6 426.596 280.261 430.812 271.482C434.587 271.599 438.453 271.237 442.293 270.308C453.671 267.571 466.239 258.56 466.588 245.78C467.002 231.709 452.417 223.138 440.237 230.302ZM453.697 249.563C450.361 255.849 443.146 258.948 435.854 259.709C437.858 253.887 439.164 246.852 443.47 242.424C449.934 235.763 457.886 241.649 453.697 249.563Z" fill="#DD5746"/>
<path d="M242.906 140.132C241.057 140.674 239.221 141.229 237.372 141.772C239.259 137.925 241.147 134.078 243.022 130.244C243.41 129.443 243.112 128.411 242.182 128.165C239.841 127.572 237.436 127.378 235.031 127.636C234.269 127.714 233.622 128.23 233.622 129.043C233.622 129.74 234.269 130.541 235.031 130.45C236.609 130.282 238.173 130.308 239.725 130.541C237.63 134.801 235.549 139.061 233.454 143.321C232.937 144.379 233.803 145.773 235.057 145.399C237.928 144.547 240.785 143.695 243.655 142.843C245.388 142.34 244.651 139.616 242.906 140.132Z" fill="#DD5746"/>
<path d="M249.358 129.121C248.427 128.63 247.328 128.488 246.41 129.069C245.621 129.559 245.155 130.424 244.871 131.276C244.069 133.729 244.431 136.621 245.091 139.061C245.337 139.951 245.724 140.868 246.448 141.475C247.354 142.249 248.569 142.352 249.59 141.72C250.638 141.074 251.129 139.977 251.504 138.854C251.879 137.705 252.086 136.479 252.125 135.265C252.215 132.942 251.594 130.308 249.358 129.121ZM248.918 138.867C248.802 139.125 248.659 139.409 248.427 139.59C248.362 139.641 248.168 139.732 248.181 139.732C248.155 139.745 248.091 139.732 248.078 139.719C248.052 139.68 248.052 139.693 247.961 139.603C247.871 139.512 247.845 139.474 247.754 139.306C247.599 139.035 247.522 138.789 247.418 138.428C246.966 136.75 246.772 135.046 246.927 133.303C246.953 132.98 247.004 132.671 247.082 132.348C247.108 132.219 247.147 132.103 247.185 131.986C247.237 131.831 247.289 131.689 247.289 131.677C247.341 131.56 247.405 131.457 247.47 131.354C247.496 131.315 247.522 131.276 247.547 131.238C247.56 131.225 247.573 131.212 247.612 131.186C247.767 131.044 247.586 131.225 247.716 131.121C247.728 131.121 247.741 131.109 247.78 131.109C247.961 131.134 247.793 131.083 247.987 131.16C248.078 131.199 248.194 131.251 248.284 131.315C248.543 131.483 248.789 131.702 248.983 131.948C249.422 132.516 249.616 133.277 249.668 133.974C249.81 135.575 249.59 137.369 248.918 138.867Z" fill="#DD5746"/>
<path d="M258.925 130.45C257.594 130.153 256.197 130.011 254.84 129.999C254.258 129.999 253.766 130.489 253.766 131.07C253.766 131.651 254.258 132.141 254.84 132.141C255.887 132.141 256.921 132.232 257.943 132.425C258.15 132.464 258.343 132.516 258.55 132.567C258.499 132.632 258.447 132.684 258.343 132.787C256.792 134.388 255.202 135.95 253.624 137.525C253.068 138.08 253.301 139.138 254.103 139.319C255.796 139.719 257.516 139.745 259.223 139.435C259.792 139.332 260.115 138.635 259.973 138.105C259.805 137.499 259.223 137.253 258.641 137.357C258.007 137.473 257.335 137.525 256.676 137.499C257.115 137.047 257.568 136.608 258.007 136.156C258.447 135.704 258.899 135.265 259.339 134.814C259.779 134.362 260.296 133.923 260.567 133.355C260.904 132.671 260.904 131.896 260.425 131.277C260.063 130.825 259.507 130.579 258.925 130.45Z" fill="#DD5746"/>
<path d="M270.446 131.535C269.98 131.431 269.373 131.677 269.282 132.193C269.153 132.903 269.036 133.613 268.907 134.31C267.265 134.568 265.623 134.827 263.981 135.085C264.563 134.517 265.145 133.936 265.739 133.368C266.606 132.516 265.274 131.186 264.408 132.038C263.567 132.864 262.714 133.678 261.886 134.517C261.46 134.956 261.188 135.498 261.382 136.117C261.589 136.776 262.261 137.124 262.921 137.137C263.516 137.137 264.149 136.969 264.731 136.879C265.313 136.789 265.895 136.698 266.463 136.608C267.162 136.492 267.873 136.389 268.571 136.272C268.532 136.518 268.48 136.763 268.442 137.008C268.351 137.486 268.571 138.041 269.101 138.17C269.567 138.273 270.174 138.028 270.265 137.512C270.549 135.911 270.821 134.31 271.105 132.709C271.196 132.206 270.976 131.651 270.446 131.535Z" fill="#DD5746"/>
</svg>
